<mxfile host="Electron" agent="Mozilla/5.0 (X11; Linux x86_64) AppleWebKit/537.36 (KHTML, like Gecko) draw.io/24.7.8 Chrome/128.0.6613.36 Electron/32.0.1 Safari/537.36" version="24.7.8">
  <diagram name="Page-1" id="a7ZW4rVTRqdKTcaeCaO2">
    <mxGraphModel dx="1509" dy="955" grid="1" gridSize="10" guides="1" tooltips="1" connect="1" arrows="1" fold="1" page="1" pageScale="1" pageWidth="827" pageHeight="583" math="0" shadow="0">
      <root>
        <mxCell id="0" />
        <mxCell id="1" parent="0" />
        <mxCell id="cHZGJzWB-n1yOCpwRg6D-19" value="" style="points=[[0.145,0.145,0],[0.5,0,0],[0.855,0.145,0],[1,0.5,0],[0.855,0.855,0],[0.5,1,0],[0.145,0.855,0],[0,0.5,0]];shape=mxgraph.bpmn.event;html=1;verticalLabelPosition=bottom;labelBackgroundColor=#ffffff;verticalAlign=top;align=center;perimeter=ellipsePerimeter;outlineConnect=0;aspect=fixed;outline=standard;symbol=general;" vertex="1" parent="1">
          <mxGeometry x="90" y="90" width="20" height="20" as="geometry" />
        </mxCell>
        <mxCell id="cHZGJzWB-n1yOCpwRg6D-20" value="Захотелось съесть бургер" style="text;html=1;align=center;verticalAlign=middle;whiteSpace=wrap;rounded=0;fontFamily=Courier New;fontSize=8;fontStyle=0" vertex="1" parent="1">
          <mxGeometry x="60" y="110" width="80" height="30" as="geometry" />
        </mxCell>
        <mxCell id="cHZGJzWB-n1yOCpwRg6D-21" value="Прийти в ресторан" style="points=[[0.25,0,0],[0.5,0,0],[0.75,0,0],[1,0.25,0],[1,0.5,0],[1,0.75,0],[0.75,1,0],[0.5,1,0],[0.25,1,0],[0,0.75,0],[0,0.5,0],[0,0.25,0]];shape=mxgraph.bpmn.task;whiteSpace=wrap;rectStyle=rounded;size=5;html=1;container=1;expand=0;collapsible=0;taskMarker=abstract;fontFamily=Courier New;fontSize=8;spacing=5;" vertex="1" parent="1">
          <mxGeometry x="150" y="80" width="60" height="40" as="geometry" />
        </mxCell>
        <mxCell id="cHZGJzWB-n1yOCpwRg6D-22" style="edgeStyle=orthogonalEdgeStyle;rounded=1;orthogonalLoop=1;jettySize=auto;html=1;exitX=1;exitY=0.5;exitDx=0;exitDy=0;exitPerimeter=0;entryX=0;entryY=0.5;entryDx=0;entryDy=0;entryPerimeter=0;endArrow=block;endFill=1;endSize=5;startSize=5;curved=0;" edge="1" parent="1" source="cHZGJzWB-n1yOCpwRg6D-19" target="cHZGJzWB-n1yOCpwRg6D-21">
          <mxGeometry relative="1" as="geometry" />
        </mxCell>
        <mxCell id="cHZGJzWB-n1yOCpwRg6D-23" value="Выбрать бургер из меню" style="points=[[0.25,0,0],[0.5,0,0],[0.75,0,0],[1,0.25,0],[1,0.5,0],[1,0.75,0],[0.75,1,0],[0.5,1,0],[0.25,1,0],[0,0.75,0],[0,0.5,0],[0,0.25,0]];shape=mxgraph.bpmn.task;whiteSpace=wrap;rectStyle=rounded;size=5;html=1;container=1;expand=0;collapsible=0;taskMarker=abstract;fontFamily=Courier New;fontSize=8;spacing=5;" vertex="1" parent="1">
          <mxGeometry x="230" y="80" width="60" height="40" as="geometry" />
        </mxCell>
        <mxCell id="cHZGJzWB-n1yOCpwRg6D-25" value="Принять заказ" style="points=[[0.25,0,0],[0.5,0,0],[0.75,0,0],[1,0.25,0],[1,0.5,0],[1,0.75,0],[0.75,1,0],[0.5,1,0],[0.25,1,0],[0,0.75,0],[0,0.5,0],[0,0.25,0]];shape=mxgraph.bpmn.task;whiteSpace=wrap;rectStyle=rounded;size=5;html=1;container=1;expand=0;collapsible=0;taskMarker=abstract;fontFamily=Courier New;fontSize=8;spacing=5;" vertex="1" parent="1">
          <mxGeometry x="230" y="220" width="60" height="40" as="geometry" />
        </mxCell>
        <mxCell id="cHZGJzWB-n1yOCpwRg6D-26" style="edgeStyle=orthogonalEdgeStyle;rounded=1;orthogonalLoop=1;jettySize=auto;html=1;exitX=0.5;exitY=1;exitDx=0;exitDy=0;exitPerimeter=0;entryX=0.5;entryY=0;entryDx=0;entryDy=0;entryPerimeter=0;endArrow=block;endFill=1;endSize=5;startSize=5;curved=0;" edge="1" parent="1" source="cHZGJzWB-n1yOCpwRg6D-23" target="cHZGJzWB-n1yOCpwRg6D-25">
          <mxGeometry relative="1" as="geometry" />
        </mxCell>
        <mxCell id="cHZGJzWB-n1yOCpwRg6D-27" value="Предложить форму оплаты" style="points=[[0.25,0,0],[0.5,0,0],[0.75,0,0],[1,0.25,0],[1,0.5,0],[1,0.75,0],[0.75,1,0],[0.5,1,0],[0.25,1,0],[0,0.75,0],[0,0.5,0],[0,0.25,0]];shape=mxgraph.bpmn.task;whiteSpace=wrap;rectStyle=rounded;size=5;html=1;container=1;expand=0;collapsible=0;taskMarker=abstract;fontFamily=Courier New;fontSize=8;spacing=5;" vertex="1" parent="1">
          <mxGeometry x="310" y="220" width="60" height="40" as="geometry" />
        </mxCell>
        <mxCell id="cHZGJzWB-n1yOCpwRg6D-28" style="edgeStyle=orthogonalEdgeStyle;rounded=1;orthogonalLoop=1;jettySize=auto;html=1;exitX=1;exitY=0.5;exitDx=0;exitDy=0;exitPerimeter=0;entryX=0;entryY=0.5;entryDx=0;entryDy=0;entryPerimeter=0;endArrow=block;endFill=1;endSize=5;startSize=5;curved=0;" edge="1" parent="1" source="cHZGJzWB-n1yOCpwRg6D-21" target="cHZGJzWB-n1yOCpwRg6D-23">
          <mxGeometry relative="1" as="geometry" />
        </mxCell>
        <mxCell id="cHZGJzWB-n1yOCpwRg6D-29" style="edgeStyle=orthogonalEdgeStyle;rounded=1;orthogonalLoop=1;jettySize=auto;html=1;exitX=1;exitY=0.5;exitDx=0;exitDy=0;exitPerimeter=0;entryX=0;entryY=0.5;entryDx=0;entryDy=0;entryPerimeter=0;endArrow=block;endFill=1;endSize=5;startSize=5;curved=0;" edge="1" parent="1" source="cHZGJzWB-n1yOCpwRg6D-25" target="cHZGJzWB-n1yOCpwRg6D-27">
          <mxGeometry relative="1" as="geometry">
            <mxPoint x="330" y="240" as="targetPoint" />
          </mxGeometry>
        </mxCell>
        <mxCell id="cHZGJzWB-n1yOCpwRg6D-32" style="edgeStyle=orthogonalEdgeStyle;rounded=1;orthogonalLoop=1;jettySize=auto;html=1;exitX=0.5;exitY=0;exitDx=0;exitDy=0;exitPerimeter=0;entryX=0;entryY=0.5;entryDx=0;entryDy=0;entryPerimeter=0;endArrow=block;endFill=1;endSize=5;startSize=5;curved=0;" edge="1" parent="1" source="cHZGJzWB-n1yOCpwRg6D-27" target="cHZGJzWB-n1yOCpwRg6D-33">
          <mxGeometry relative="1" as="geometry">
            <mxPoint x="340" y="120" as="targetPoint" />
          </mxGeometry>
        </mxCell>
        <mxCell id="cHZGJzWB-n1yOCpwRg6D-33" value="" style="points=[[0.25,0.25,0],[0.5,0,0],[0.75,0.25,0],[1,0.5,0],[0.75,0.75,0],[0.5,1,0],[0.25,0.75,0],[0,0.5,0]];shape=mxgraph.bpmn.gateway2;html=1;verticalLabelPosition=bottom;labelBackgroundColor=#ffffff;verticalAlign=top;align=center;perimeter=rhombusPerimeter;outlineConnect=0;outline=none;symbol=none;gwType=exclusive;" vertex="1" parent="1">
          <mxGeometry x="360" y="90" width="20" height="20" as="geometry" />
        </mxCell>
        <mxCell id="cHZGJzWB-n1yOCpwRg6D-36" value="Оплатить картой" style="points=[[0.25,0,0],[0.5,0,0],[0.75,0,0],[1,0.25,0],[1,0.5,0],[1,0.75,0],[0.75,1,0],[0.5,1,0],[0.25,1,0],[0,0.75,0],[0,0.5,0],[0,0.25,0]];shape=mxgraph.bpmn.task;whiteSpace=wrap;rectStyle=rounded;size=5;html=1;container=1;expand=0;collapsible=0;taskMarker=abstract;fontFamily=Courier New;fontSize=8;spacing=5;spacingBottom=10;" vertex="1" parent="1">
          <mxGeometry x="560" y="130" width="60" height="40" as="geometry" />
        </mxCell>
        <mxCell id="cHZGJzWB-n1yOCpwRg6D-40" value="Оплатить наличными без сдачи" style="points=[[0.25,0,0],[0.5,0,0],[0.75,0,0],[1,0.25,0],[1,0.5,0],[1,0.75,0],[0.75,1,0],[0.5,1,0],[0.25,1,0],[0,0.75,0],[0,0.5,0],[0,0.25,0]];shape=mxgraph.bpmn.task;whiteSpace=wrap;rectStyle=rounded;size=5;html=1;container=1;expand=0;collapsible=0;taskMarker=abstract;fontFamily=Courier New;fontSize=8;spacing=5;" vertex="1" parent="1">
          <mxGeometry x="460" y="10" width="60" height="40" as="geometry" />
        </mxCell>
        <mxCell id="cHZGJzWB-n1yOCpwRg6D-41" value="Оплатить наличными со сдачей" style="points=[[0.25,0,0],[0.5,0,0],[0.75,0,0],[1,0.25,0],[1,0.5,0],[1,0.75,0],[0.75,1,0],[0.5,1,0],[0.25,1,0],[0,0.75,0],[0,0.5,0],[0,0.25,0]];shape=mxgraph.bpmn.task;whiteSpace=wrap;rectStyle=rounded;size=5;html=1;container=1;expand=0;collapsible=0;taskMarker=abstract;fontFamily=Courier New;fontSize=8;spacing=5;verticalAlign=middle;spacingBottom=10;" vertex="1" parent="1">
          <mxGeometry x="460" y="70" width="100" height="40" as="geometry" />
        </mxCell>
        <mxCell id="cHZGJzWB-n1yOCpwRg6D-48" value="Предложить оплату картой" style="points=[[0.25,0,0],[0.5,0,0],[0.75,0,0],[1,0.25,0],[1,0.5,0],[1,0.75,0],[0.75,1,0],[0.5,1,0],[0.25,1,0],[0,0.75,0],[0,0.5,0],[0,0.25,0]];shape=mxgraph.bpmn.task;whiteSpace=wrap;rectStyle=rounded;size=5;html=1;container=1;expand=0;collapsible=0;taskMarker=abstract;fontFamily=Courier New;fontSize=8;spacing=5;" vertex="1" parent="1">
          <mxGeometry x="480" y="220" width="60" height="40" as="geometry" />
        </mxCell>
        <mxCell id="cHZGJzWB-n1yOCpwRg6D-52" value="" style="points=[[0.145,0.145,0],[0.5,0,0],[0.855,0.145,0],[1,0.5,0],[0.855,0.855,0],[0.5,1,0],[0.145,0.855,0],[0,0.5,0]];shape=mxgraph.bpmn.event;html=1;verticalLabelPosition=bottom;labelBackgroundColor=#ffffff;verticalAlign=top;align=center;perimeter=ellipsePerimeter;outlineConnect=0;aspect=fixed;outline=boundInt;symbol=error;" vertex="1" parent="1">
          <mxGeometry x="500" y="100" width="20" height="20" as="geometry" />
        </mxCell>
        <mxCell id="cHZGJzWB-n1yOCpwRg6D-54" value="Предложить оплату наличными" style="points=[[0.25,0,0],[0.5,0,0],[0.75,0,0],[1,0.25,0],[1,0.5,0],[1,0.75,0],[0.75,1,0],[0.5,1,0],[0.25,1,0],[0,0.75,0],[0,0.5,0],[0,0.25,0]];shape=mxgraph.bpmn.task;whiteSpace=wrap;rectStyle=rounded;size=5;html=1;container=1;expand=0;collapsible=0;taskMarker=abstract;fontFamily=Courier New;fontSize=8;spacing=5;" vertex="1" parent="1">
          <mxGeometry x="560" y="220" width="60" height="40" as="geometry" />
        </mxCell>
        <mxCell id="cHZGJzWB-n1yOCpwRg6D-55" value="сбой оплаты" style="text;html=1;align=center;verticalAlign=middle;whiteSpace=wrap;rounded=0;fontFamily=Courier New;fontSize=8;fontStyle=0" vertex="1" parent="1">
          <mxGeometry x="550" y="170" width="30" height="20" as="geometry" />
        </mxCell>
        <mxCell id="cHZGJzWB-n1yOCpwRg6D-56" value="нет сдачи" style="text;html=1;align=center;verticalAlign=middle;whiteSpace=wrap;rounded=0;fontFamily=Courier New;fontSize=8;fontStyle=0" vertex="1" parent="1">
          <mxGeometry x="470" y="110" width="30" height="20" as="geometry" />
        </mxCell>
        <mxCell id="cHZGJzWB-n1yOCpwRg6D-58" style="edgeStyle=orthogonalEdgeStyle;rounded=1;orthogonalLoop=1;jettySize=auto;html=1;exitX=0.5;exitY=1;exitDx=0;exitDy=0;exitPerimeter=0;entryX=0.5;entryY=0;entryDx=0;entryDy=0;entryPerimeter=0;endArrow=block;endFill=1;endSize=5;startSize=5;curved=0;" edge="1" parent="1" source="cHZGJzWB-n1yOCpwRg6D-52" target="cHZGJzWB-n1yOCpwRg6D-48">
          <mxGeometry relative="1" as="geometry" />
        </mxCell>
        <mxCell id="cHZGJzWB-n1yOCpwRg6D-61" style="edgeStyle=orthogonalEdgeStyle;rounded=1;orthogonalLoop=1;jettySize=auto;html=1;exitX=0;exitY=0.5;exitDx=0;exitDy=0;exitPerimeter=0;entryX=0;entryY=0.75;entryDx=0;entryDy=0;entryPerimeter=0;endArrow=block;endFill=1;endSize=5;startSize=5;curved=0;" edge="1" parent="1" source="cHZGJzWB-n1yOCpwRg6D-48" target="cHZGJzWB-n1yOCpwRg6D-36">
          <mxGeometry relative="1" as="geometry">
            <Array as="points">
              <mxPoint x="460" y="240" />
              <mxPoint x="460" y="160" />
            </Array>
          </mxGeometry>
        </mxCell>
        <mxCell id="cHZGJzWB-n1yOCpwRg6D-53" value="" style="points=[[0.145,0.145,0],[0.5,0,0],[0.855,0.145,0],[1,0.5,0],[0.855,0.855,0],[0.5,1,0],[0.145,0.855,0],[0,0.5,0]];shape=mxgraph.bpmn.event;html=1;verticalLabelPosition=bottom;labelBackgroundColor=#ffffff;verticalAlign=top;align=center;perimeter=ellipsePerimeter;outlineConnect=0;aspect=fixed;outline=boundInt;symbol=error;" vertex="1" parent="1">
          <mxGeometry x="580" y="160" width="20" height="20" as="geometry" />
        </mxCell>
        <mxCell id="cHZGJzWB-n1yOCpwRg6D-62" style="edgeStyle=orthogonalEdgeStyle;rounded=1;orthogonalLoop=1;jettySize=auto;html=1;exitX=0.5;exitY=1;exitDx=0;exitDy=0;exitPerimeter=0;entryX=0.5;entryY=0;entryDx=0;entryDy=0;entryPerimeter=0;endArrow=block;endFill=1;endSize=5;startSize=5;curved=0;" edge="1" parent="1" source="cHZGJzWB-n1yOCpwRg6D-53" target="cHZGJzWB-n1yOCpwRg6D-54">
          <mxGeometry relative="1" as="geometry">
            <mxPoint x="580" y="280" as="targetPoint" />
          </mxGeometry>
        </mxCell>
        <mxCell id="cHZGJzWB-n1yOCpwRg6D-63" value="" style="points=[[0.25,0.25,0],[0.5,0,0],[0.75,0.25,0],[1,0.5,0],[0.75,0.75,0],[0.5,1,0],[0.25,0.75,0],[0,0.5,0]];shape=mxgraph.bpmn.gateway2;html=1;verticalLabelPosition=bottom;labelBackgroundColor=#ffffff;verticalAlign=top;align=center;perimeter=rhombusPerimeter;outlineConnect=0;outline=none;symbol=none;gwType=exclusive;" vertex="1" parent="1">
          <mxGeometry x="420" y="30" width="20" height="20" as="geometry" />
        </mxCell>
        <mxCell id="cHZGJzWB-n1yOCpwRg6D-64" style="edgeStyle=orthogonalEdgeStyle;rounded=1;orthogonalLoop=1;jettySize=auto;html=1;entryX=0;entryY=0.5;entryDx=0;entryDy=0;entryPerimeter=0;exitX=0.5;exitY=1;exitDx=0;exitDy=0;exitPerimeter=0;endArrow=block;endFill=1;endSize=5;startSize=5;curved=0;" edge="1" parent="1" source="cHZGJzWB-n1yOCpwRg6D-54" target="cHZGJzWB-n1yOCpwRg6D-63">
          <mxGeometry relative="1" as="geometry">
            <mxPoint x="500" y="320" as="sourcePoint" />
            <Array as="points">
              <mxPoint x="590" y="280" />
              <mxPoint x="400" y="280" />
              <mxPoint x="400" y="40" />
            </Array>
          </mxGeometry>
        </mxCell>
        <mxCell id="cHZGJzWB-n1yOCpwRg6D-67" style="edgeStyle=orthogonalEdgeStyle;rounded=1;orthogonalLoop=1;jettySize=auto;html=1;exitX=0.5;exitY=1;exitDx=0;exitDy=0;exitPerimeter=0;entryX=0;entryY=0.25;entryDx=0;entryDy=0;entryPerimeter=0;endArrow=block;endFill=1;endSize=5;startSize=5;curved=0;" edge="1" parent="1" source="cHZGJzWB-n1yOCpwRg6D-63" target="cHZGJzWB-n1yOCpwRg6D-41">
          <mxGeometry relative="1" as="geometry">
            <Array as="points">
              <mxPoint x="430" y="80" />
            </Array>
          </mxGeometry>
        </mxCell>
        <mxCell id="cHZGJzWB-n1yOCpwRg6D-68" style="edgeStyle=orthogonalEdgeStyle;rounded=1;orthogonalLoop=1;jettySize=auto;html=1;exitX=1;exitY=0.5;exitDx=0;exitDy=0;exitPerimeter=0;entryX=0;entryY=0.75;entryDx=0;entryDy=0;entryPerimeter=0;endArrow=block;endFill=1;endSize=5;startSize=5;curved=0;" edge="1" parent="1" source="cHZGJzWB-n1yOCpwRg6D-63" target="cHZGJzWB-n1yOCpwRg6D-40">
          <mxGeometry relative="1" as="geometry" />
        </mxCell>
        <mxCell id="cHZGJzWB-n1yOCpwRg6D-70" style="edgeStyle=orthogonalEdgeStyle;rounded=1;orthogonalLoop=1;jettySize=auto;html=1;exitX=0.5;exitY=0;exitDx=0;exitDy=0;exitPerimeter=0;entryX=0;entryY=0.25;entryDx=0;entryDy=0;entryPerimeter=0;endArrow=block;endFill=1;endSize=5;startSize=5;curved=0;" edge="1" parent="1" source="cHZGJzWB-n1yOCpwRg6D-33" target="cHZGJzWB-n1yOCpwRg6D-40">
          <mxGeometry relative="1" as="geometry" />
        </mxCell>
        <mxCell id="cHZGJzWB-n1yOCpwRg6D-71" style="edgeStyle=orthogonalEdgeStyle;rounded=1;orthogonalLoop=1;jettySize=auto;html=1;exitX=0.5;exitY=1;exitDx=0;exitDy=0;exitPerimeter=0;entryX=0;entryY=0.25;entryDx=0;entryDy=0;entryPerimeter=0;endArrow=block;endFill=1;endSize=5;startSize=5;curved=0;" edge="1" parent="1" source="cHZGJzWB-n1yOCpwRg6D-33" target="cHZGJzWB-n1yOCpwRg6D-36">
          <mxGeometry relative="1" as="geometry" />
        </mxCell>
        <mxCell id="cHZGJzWB-n1yOCpwRg6D-72" style="edgeStyle=orthogonalEdgeStyle;rounded=1;orthogonalLoop=1;jettySize=auto;html=1;exitX=1;exitY=0.5;exitDx=0;exitDy=0;exitPerimeter=0;entryX=0;entryY=0.75;entryDx=0;entryDy=0;entryPerimeter=0;endArrow=block;endFill=1;endSize=5;startSize=5;curved=0;" edge="1" parent="1" source="cHZGJzWB-n1yOCpwRg6D-33" target="cHZGJzWB-n1yOCpwRg6D-41">
          <mxGeometry relative="1" as="geometry" />
        </mxCell>
        <mxCell id="cHZGJzWB-n1yOCpwRg6D-73" value="" style="points=[[0.25,0.25,0],[0.5,0,0],[0.75,0.25,0],[1,0.5,0],[0.75,0.75,0],[0.5,1,0],[0.25,0.75,0],[0,0.5,0]];shape=mxgraph.bpmn.gateway2;html=1;verticalLabelPosition=bottom;labelBackgroundColor=#ffffff;verticalAlign=top;align=center;perimeter=rhombusPerimeter;outlineConnect=0;outline=none;symbol=none;" vertex="1" parent="1">
          <mxGeometry x="630" y="80" width="20" height="20" as="geometry" />
        </mxCell>
        <mxCell id="cHZGJzWB-n1yOCpwRg6D-74" style="edgeStyle=orthogonalEdgeStyle;rounded=1;orthogonalLoop=1;jettySize=auto;html=1;exitX=1;exitY=0.5;exitDx=0;exitDy=0;exitPerimeter=0;entryX=0.5;entryY=0;entryDx=0;entryDy=0;entryPerimeter=0;endArrow=block;endFill=1;endSize=5;startSize=5;curved=0;" edge="1" parent="1" source="cHZGJzWB-n1yOCpwRg6D-40" target="cHZGJzWB-n1yOCpwRg6D-73">
          <mxGeometry relative="1" as="geometry" />
        </mxCell>
        <mxCell id="cHZGJzWB-n1yOCpwRg6D-75" style="edgeStyle=orthogonalEdgeStyle;rounded=1;orthogonalLoop=1;jettySize=auto;html=1;exitX=1;exitY=0.5;exitDx=0;exitDy=0;exitPerimeter=0;entryX=0;entryY=0.5;entryDx=0;entryDy=0;entryPerimeter=0;endArrow=block;endFill=1;endSize=5;startSize=5;curved=0;" edge="1" parent="1" source="cHZGJzWB-n1yOCpwRg6D-41" target="cHZGJzWB-n1yOCpwRg6D-73">
          <mxGeometry relative="1" as="geometry" />
        </mxCell>
        <mxCell id="cHZGJzWB-n1yOCpwRg6D-76" style="edgeStyle=orthogonalEdgeStyle;rounded=1;orthogonalLoop=1;jettySize=auto;html=1;exitX=1;exitY=0.5;exitDx=0;exitDy=0;exitPerimeter=0;entryX=0.5;entryY=1;entryDx=0;entryDy=0;entryPerimeter=0;endArrow=block;endFill=1;endSize=5;startSize=5;curved=0;" edge="1" parent="1" source="cHZGJzWB-n1yOCpwRg6D-36" target="cHZGJzWB-n1yOCpwRg6D-73">
          <mxGeometry relative="1" as="geometry" />
        </mxCell>
        <mxCell id="cHZGJzWB-n1yOCpwRg6D-77" value="Передать чек с номером заказа клиенту" style="points=[[0.25,0,0],[0.5,0,0],[0.75,0,0],[1,0.25,0],[1,0.5,0],[1,0.75,0],[0.75,1,0],[0.5,1,0],[0.25,1,0],[0,0.75,0],[0,0.5,0],[0,0.25,0]];shape=mxgraph.bpmn.task;whiteSpace=wrap;rectStyle=rounded;size=5;html=1;container=1;expand=0;collapsible=0;taskMarker=abstract;fontFamily=Courier New;fontSize=8;spacing=5;" vertex="1" parent="1">
          <mxGeometry x="690" y="220" width="80" height="40" as="geometry" />
        </mxCell>
        <mxCell id="cHZGJzWB-n1yOCpwRg6D-78" style="edgeStyle=orthogonalEdgeStyle;rounded=1;orthogonalLoop=1;jettySize=auto;html=1;exitX=1;exitY=0.5;exitDx=0;exitDy=0;exitPerimeter=0;entryX=0;entryY=0.5;entryDx=0;entryDy=0;entryPerimeter=0;endArrow=block;endFill=1;endSize=5;startSize=5;curved=0;" edge="1" parent="1" source="cHZGJzWB-n1yOCpwRg6D-73" target="cHZGJzWB-n1yOCpwRg6D-77">
          <mxGeometry relative="1" as="geometry">
            <Array as="points">
              <mxPoint x="670" y="90" />
              <mxPoint x="670" y="240" />
            </Array>
          </mxGeometry>
        </mxCell>
        <mxCell id="cHZGJzWB-n1yOCpwRg6D-80" value="" style="shape=mxgraph.bpmn.data;labelPosition=center;verticalLabelPosition=bottom;align=center;verticalAlign=top;size=10;html=1;" vertex="1" parent="1">
          <mxGeometry x="715" y="80" width="30" height="40" as="geometry" />
        </mxCell>
        <mxCell id="cHZGJzWB-n1yOCpwRg6D-82" value="Чек с номером заказа" style="text;html=1;align=center;verticalAlign=middle;whiteSpace=wrap;rounded=0;fontFamily=Courier New;fontSize=8;fontStyle=0" vertex="1" parent="1">
          <mxGeometry x="745" y="90" width="40" height="40" as="geometry" />
        </mxCell>
        <mxCell id="cHZGJzWB-n1yOCpwRg6D-83" style="edgeStyle=orthogonalEdgeStyle;rounded=0;orthogonalLoop=1;jettySize=auto;html=1;exitX=0.5;exitY=0;exitDx=0;exitDy=0;exitPerimeter=0;entryX=0.5;entryY=1;entryDx=0;entryDy=0;entryPerimeter=0;dashed=1;endArrow=open;endFill=0;" edge="1" parent="1" source="cHZGJzWB-n1yOCpwRg6D-77" target="cHZGJzWB-n1yOCpwRg6D-80">
          <mxGeometry relative="1" as="geometry" />
        </mxCell>
        <mxCell id="cHZGJzWB-n1yOCpwRg6D-85" value="Передать заказ повару" style="points=[[0.25,0,0],[0.5,0,0],[0.75,0,0],[1,0.25,0],[1,0.5,0],[1,0.75,0],[0.75,1,0],[0.5,1,0],[0.25,1,0],[0,0.75,0],[0,0.5,0],[0,0.25,0]];shape=mxgraph.bpmn.task;whiteSpace=wrap;rectStyle=rounded;size=5;html=1;container=1;expand=0;collapsible=0;taskMarker=abstract;fontFamily=Courier New;fontSize=8;spacing=5;" vertex="1" parent="1">
          <mxGeometry x="790" y="220" width="60" height="40" as="geometry" />
        </mxCell>
        <mxCell id="cHZGJzWB-n1yOCpwRg6D-86" style="edgeStyle=orthogonalEdgeStyle;rounded=1;orthogonalLoop=1;jettySize=auto;html=1;exitX=1;exitY=0.5;exitDx=0;exitDy=0;exitPerimeter=0;entryX=0;entryY=0.5;entryDx=0;entryDy=0;entryPerimeter=0;endArrow=block;endFill=1;endSize=5;startSize=5;curved=0;" edge="1" parent="1" source="cHZGJzWB-n1yOCpwRg6D-77" target="cHZGJzWB-n1yOCpwRg6D-85">
          <mxGeometry relative="1" as="geometry" />
        </mxCell>
        <mxCell id="cHZGJzWB-n1yOCpwRg6D-88" value="" style="points=[[0.145,0.145,0],[0.5,0,0],[0.855,0.145,0],[1,0.5,0],[0.855,0.855,0],[0.5,1,0],[0.145,0.855,0],[0,0.5,0]];shape=mxgraph.bpmn.event;html=1;verticalLabelPosition=bottom;labelBackgroundColor=#ffffff;verticalAlign=top;align=center;perimeter=ellipsePerimeter;outlineConnect=0;aspect=fixed;outline=catching;symbol=link;" vertex="1" parent="1">
          <mxGeometry x="90" y="360" width="20" height="20" as="geometry" />
        </mxCell>
        <mxCell id="cHZGJzWB-n1yOCpwRg6D-89" value="" style="points=[[0.145,0.145,0],[0.5,0,0],[0.855,0.145,0],[1,0.5,0],[0.855,0.855,0],[0.5,1,0],[0.145,0.855,0],[0,0.5,0]];shape=mxgraph.bpmn.event;html=1;verticalLabelPosition=bottom;labelBackgroundColor=#ffffff;verticalAlign=top;align=center;perimeter=ellipsePerimeter;outlineConnect=0;aspect=fixed;outline=throwing;symbol=link;" vertex="1" parent="1">
          <mxGeometry x="890" y="230" width="20" height="20" as="geometry" />
        </mxCell>
        <mxCell id="cHZGJzWB-n1yOCpwRg6D-91" value="Промежуточное событие-ссылка" style="text;html=1;align=center;verticalAlign=middle;whiteSpace=wrap;rounded=0;fontFamily=Courier New;fontSize=8;fontStyle=0" vertex="1" parent="1">
          <mxGeometry x="860" y="250" width="80" height="30" as="geometry" />
        </mxCell>
        <mxCell id="cHZGJzWB-n1yOCpwRg6D-92" style="edgeStyle=orthogonalEdgeStyle;rounded=1;orthogonalLoop=1;jettySize=auto;html=1;exitX=1;exitY=0.5;exitDx=0;exitDy=0;exitPerimeter=0;entryX=0;entryY=0.5;entryDx=0;entryDy=0;entryPerimeter=0;endArrow=block;endFill=1;endSize=5;startSize=5;curved=0;" edge="1" parent="1" source="cHZGJzWB-n1yOCpwRg6D-85" target="cHZGJzWB-n1yOCpwRg6D-89">
          <mxGeometry relative="1" as="geometry" />
        </mxCell>
        <mxCell id="cHZGJzWB-n1yOCpwRg6D-93" value="Промежуточное событие-ссылка" style="text;html=1;align=center;verticalAlign=middle;whiteSpace=wrap;rounded=0;fontFamily=Courier New;fontSize=8;fontStyle=0" vertex="1" parent="1">
          <mxGeometry x="60" y="380" width="80" height="30" as="geometry" />
        </mxCell>
        <mxCell id="cHZGJzWB-n1yOCpwRg6D-94" value="Подготовить ингридиенты" style="points=[[0.25,0,0],[0.5,0,0],[0.75,0,0],[1,0.25,0],[1,0.5,0],[1,0.75,0],[0.75,1,0],[0.5,1,0],[0.25,1,0],[0,0.75,0],[0,0.5,0],[0,0.25,0]];shape=mxgraph.bpmn.task;whiteSpace=wrap;rectStyle=rounded;size=5;html=1;container=1;expand=0;collapsible=0;taskMarker=abstract;fontFamily=Courier New;fontSize=8;spacing=5;" vertex="1" parent="1">
          <mxGeometry x="150" y="350" width="60" height="40" as="geometry" />
        </mxCell>
        <mxCell id="cHZGJzWB-n1yOCpwRg6D-95" style="edgeStyle=orthogonalEdgeStyle;rounded=1;orthogonalLoop=1;jettySize=auto;html=1;exitX=1;exitY=0.5;exitDx=0;exitDy=0;exitPerimeter=0;entryX=0;entryY=0.5;entryDx=0;entryDy=0;entryPerimeter=0;endArrow=block;endFill=1;startSize=5;endSize=5;curved=0;" edge="1" parent="1" source="cHZGJzWB-n1yOCpwRg6D-88" target="cHZGJzWB-n1yOCpwRg6D-94">
          <mxGeometry relative="1" as="geometry" />
        </mxCell>
        <mxCell id="cHZGJzWB-n1yOCpwRg6D-97" value="" style="points=[[0.25,0.25,0],[0.5,0,0],[0.75,0.25,0],[1,0.5,0],[0.75,0.75,0],[0.5,1,0],[0.25,0.75,0],[0,0.5,0]];shape=mxgraph.bpmn.gateway2;html=1;verticalLabelPosition=bottom;labelBackgroundColor=#ffffff;verticalAlign=top;align=center;perimeter=rhombusPerimeter;outlineConnect=0;outline=none;symbol=none;gwType=parallel;" vertex="1" parent="1">
          <mxGeometry x="230" y="360" width="20" height="20" as="geometry" />
        </mxCell>
        <mxCell id="cHZGJzWB-n1yOCpwRg6D-98" style="edgeStyle=orthogonalEdgeStyle;rounded=1;orthogonalLoop=1;jettySize=auto;html=1;exitX=1;exitY=0.5;exitDx=0;exitDy=0;exitPerimeter=0;entryX=0;entryY=0.5;entryDx=0;entryDy=0;entryPerimeter=0;endArrow=block;endFill=1;startSize=5;endSize=5;curved=0;" edge="1" parent="1" source="cHZGJzWB-n1yOCpwRg6D-94" target="cHZGJzWB-n1yOCpwRg6D-97">
          <mxGeometry relative="1" as="geometry" />
        </mxCell>
        <mxCell id="cHZGJzWB-n1yOCpwRg6D-99" value="Положить булочки на гриль" style="points=[[0.25,0,0],[0.5,0,0],[0.75,0,0],[1,0.25,0],[1,0.5,0],[1,0.75,0],[0.75,1,0],[0.5,1,0],[0.25,1,0],[0,0.75,0],[0,0.5,0],[0,0.25,0]];shape=mxgraph.bpmn.task;whiteSpace=wrap;rectStyle=rounded;size=5;html=1;container=1;expand=0;collapsible=0;taskMarker=abstract;fontFamily=Courier New;fontSize=8;spacing=5;" vertex="1" parent="1">
          <mxGeometry x="270" y="350" width="60" height="40" as="geometry" />
        </mxCell>
        <mxCell id="cHZGJzWB-n1yOCpwRg6D-100" value="Положить котлету на гриль" style="points=[[0.25,0,0],[0.5,0,0],[0.75,0,0],[1,0.25,0],[1,0.5,0],[1,0.75,0],[0.75,1,0],[0.5,1,0],[0.25,1,0],[0,0.75,0],[0,0.5,0],[0,0.25,0]];shape=mxgraph.bpmn.task;whiteSpace=wrap;rectStyle=rounded;size=5;html=1;container=1;expand=0;collapsible=0;taskMarker=abstract;fontFamily=Courier New;fontSize=8;spacing=5;" vertex="1" parent="1">
          <mxGeometry x="270" y="410" width="60" height="40" as="geometry" />
        </mxCell>
        <mxCell id="cHZGJzWB-n1yOCpwRg6D-101" style="edgeStyle=orthogonalEdgeStyle;rounded=1;orthogonalLoop=1;jettySize=auto;html=1;exitX=1;exitY=0.5;exitDx=0;exitDy=0;exitPerimeter=0;entryX=0;entryY=0.5;entryDx=0;entryDy=0;entryPerimeter=0;endArrow=block;endFill=1;startSize=5;endSize=5;curved=0;" edge="1" parent="1" source="cHZGJzWB-n1yOCpwRg6D-97" target="cHZGJzWB-n1yOCpwRg6D-99">
          <mxGeometry relative="1" as="geometry" />
        </mxCell>
        <mxCell id="cHZGJzWB-n1yOCpwRg6D-102" style="edgeStyle=orthogonalEdgeStyle;rounded=1;orthogonalLoop=1;jettySize=auto;html=1;exitX=0.5;exitY=1;exitDx=0;exitDy=0;exitPerimeter=0;entryX=0;entryY=0.5;entryDx=0;entryDy=0;entryPerimeter=0;endArrow=block;endFill=1;startSize=5;endSize=5;curved=0;" edge="1" parent="1" source="cHZGJzWB-n1yOCpwRg6D-97" target="cHZGJzWB-n1yOCpwRg6D-100">
          <mxGeometry relative="1" as="geometry" />
        </mxCell>
        <mxCell id="cHZGJzWB-n1yOCpwRg6D-106" style="edgeStyle=orthogonalEdgeStyle;rounded=1;orthogonalLoop=1;jettySize=auto;html=1;exitX=1;exitY=0.5;exitDx=0;exitDy=0;exitPerimeter=0;entryX=0;entryY=0.5;entryDx=0;entryDy=0;entryPerimeter=0;endArrow=block;endFill=1;startSize=5;endSize=5;curved=0;" edge="1" parent="1" source="cHZGJzWB-n1yOCpwRg6D-99" target="cHZGJzWB-n1yOCpwRg6D-108">
          <mxGeometry relative="1" as="geometry">
            <mxPoint x="350" y="370" as="targetPoint" />
          </mxGeometry>
        </mxCell>
        <mxCell id="cHZGJzWB-n1yOCpwRg6D-108" value="" style="points=[[0.145,0.145,0],[0.5,0,0],[0.855,0.145,0],[1,0.5,0],[0.855,0.855,0],[0.5,1,0],[0.145,0.855,0],[0,0.5,0]];shape=mxgraph.bpmn.event;html=1;verticalLabelPosition=bottom;labelBackgroundColor=#ffffff;verticalAlign=top;align=center;perimeter=ellipsePerimeter;outlineConnect=0;aspect=fixed;outline=catching;symbol=timer;" vertex="1" parent="1">
          <mxGeometry x="350" y="360" width="20" height="20" as="geometry" />
        </mxCell>
        <mxCell id="cHZGJzWB-n1yOCpwRg6D-110" value="Снять булочки с гриля" style="points=[[0.25,0,0],[0.5,0,0],[0.75,0,0],[1,0.25,0],[1,0.5,0],[1,0.75,0],[0.75,1,0],[0.5,1,0],[0.25,1,0],[0,0.75,0],[0,0.5,0],[0,0.25,0]];shape=mxgraph.bpmn.task;whiteSpace=wrap;rectStyle=rounded;size=5;html=1;container=1;expand=0;collapsible=0;taskMarker=abstract;fontFamily=Courier New;fontSize=8;spacing=5;" vertex="1" parent="1">
          <mxGeometry x="390" y="350" width="60" height="40" as="geometry" />
        </mxCell>
        <mxCell id="cHZGJzWB-n1yOCpwRg6D-111" style="edgeStyle=orthogonalEdgeStyle;rounded=1;orthogonalLoop=1;jettySize=auto;html=1;exitX=1;exitY=0.5;exitDx=0;exitDy=0;exitPerimeter=0;entryX=0;entryY=0.5;entryDx=0;entryDy=0;entryPerimeter=0;endArrow=block;endFill=1;startSize=5;endSize=5;curved=0;" edge="1" parent="1" source="cHZGJzWB-n1yOCpwRg6D-108" target="cHZGJzWB-n1yOCpwRg6D-110">
          <mxGeometry relative="1" as="geometry" />
        </mxCell>
        <mxCell id="cHZGJzWB-n1yOCpwRg6D-112" value="2 минуты" style="text;html=1;align=center;verticalAlign=middle;whiteSpace=wrap;rounded=0;fontFamily=Courier New;fontSize=8;fontStyle=0" vertex="1" parent="1">
          <mxGeometry x="340" y="380" width="40" height="20" as="geometry" />
        </mxCell>
        <mxCell id="cHZGJzWB-n1yOCpwRg6D-113" style="edgeStyle=orthogonalEdgeStyle;rounded=1;orthogonalLoop=1;jettySize=auto;html=1;exitX=1;exitY=0.5;exitDx=0;exitDy=0;exitPerimeter=0;entryX=0;entryY=0.5;entryDx=0;entryDy=0;entryPerimeter=0;endArrow=block;endFill=1;startSize=5;endSize=5;curved=0;" edge="1" parent="1" target="cHZGJzWB-n1yOCpwRg6D-114" source="cHZGJzWB-n1yOCpwRg6D-100">
          <mxGeometry relative="1" as="geometry">
            <mxPoint x="340" y="430" as="sourcePoint" />
            <mxPoint x="360" y="430" as="targetPoint" />
          </mxGeometry>
        </mxCell>
        <mxCell id="cHZGJzWB-n1yOCpwRg6D-114" value="" style="points=[[0.145,0.145,0],[0.5,0,0],[0.855,0.145,0],[1,0.5,0],[0.855,0.855,0],[0.5,1,0],[0.145,0.855,0],[0,0.5,0]];shape=mxgraph.bpmn.event;html=1;verticalLabelPosition=bottom;labelBackgroundColor=#ffffff;verticalAlign=top;align=center;perimeter=ellipsePerimeter;outlineConnect=0;aspect=fixed;outline=catching;symbol=timer;" vertex="1" parent="1">
          <mxGeometry x="350" y="420" width="20" height="20" as="geometry" />
        </mxCell>
        <mxCell id="cHZGJzWB-n1yOCpwRg6D-115" style="edgeStyle=orthogonalEdgeStyle;rounded=1;orthogonalLoop=1;jettySize=auto;html=1;exitX=1;exitY=0.5;exitDx=0;exitDy=0;exitPerimeter=0;entryX=0;entryY=0.5;entryDx=0;entryDy=0;entryPerimeter=0;endArrow=block;endFill=1;startSize=5;endSize=5;curved=0;" edge="1" parent="1" source="cHZGJzWB-n1yOCpwRg6D-114" target="cHZGJzWB-n1yOCpwRg6D-117">
          <mxGeometry relative="1" as="geometry">
            <mxPoint x="390" y="430" as="targetPoint" />
          </mxGeometry>
        </mxCell>
        <mxCell id="cHZGJzWB-n1yOCpwRg6D-116" value="3 минуты" style="text;html=1;align=center;verticalAlign=middle;whiteSpace=wrap;rounded=0;fontFamily=Courier New;fontSize=8;fontStyle=0" vertex="1" parent="1">
          <mxGeometry x="340" y="440" width="40" height="20" as="geometry" />
        </mxCell>
        <mxCell id="cHZGJzWB-n1yOCpwRg6D-117" value="Перевернуть котлету" style="points=[[0.25,0,0],[0.5,0,0],[0.75,0,0],[1,0.25,0],[1,0.5,0],[1,0.75,0],[0.75,1,0],[0.5,1,0],[0.25,1,0],[0,0.75,0],[0,0.5,0],[0,0.25,0]];shape=mxgraph.bpmn.task;whiteSpace=wrap;rectStyle=rounded;size=5;html=1;container=1;expand=0;collapsible=0;taskMarker=abstract;fontFamily=Courier New;fontSize=8;spacing=5;" vertex="1" parent="1">
          <mxGeometry x="390" y="410" width="60" height="40" as="geometry" />
        </mxCell>
        <mxCell id="cHZGJzWB-n1yOCpwRg6D-118" value="" style="points=[[0.25,0.25,0],[0.5,0,0],[0.75,0.25,0],[1,0.5,0],[0.75,0.75,0],[0.5,1,0],[0.25,0.75,0],[0,0.5,0]];shape=mxgraph.bpmn.gateway2;html=1;verticalLabelPosition=bottom;labelBackgroundColor=#ffffff;verticalAlign=top;align=center;perimeter=rhombusPerimeter;outlineConnect=0;outline=none;symbol=none;gwType=exclusive;" vertex="1" parent="1">
          <mxGeometry x="470" y="420" width="20" height="20" as="geometry" />
        </mxCell>
        <mxCell id="cHZGJzWB-n1yOCpwRg6D-119" style="edgeStyle=orthogonalEdgeStyle;rounded=1;orthogonalLoop=1;jettySize=auto;html=1;exitX=1;exitY=0.5;exitDx=0;exitDy=0;exitPerimeter=0;entryX=0;entryY=0.5;entryDx=0;entryDy=0;entryPerimeter=0;endArrow=block;endFill=1;startSize=5;endSize=5;curved=0;" edge="1" parent="1" source="cHZGJzWB-n1yOCpwRg6D-117" target="cHZGJzWB-n1yOCpwRg6D-118">
          <mxGeometry relative="1" as="geometry" />
        </mxCell>
        <mxCell id="cHZGJzWB-n1yOCpwRg6D-123" value="" style="points=[[0.145,0.145,0],[0.5,0,0],[0.855,0.145,0],[1,0.5,0],[0.855,0.855,0],[0.5,1,0],[0.145,0.855,0],[0,0.5,0]];shape=mxgraph.bpmn.event;html=1;verticalLabelPosition=bottom;labelBackgroundColor=#ffffff;verticalAlign=top;align=center;perimeter=ellipsePerimeter;outlineConnect=0;aspect=fixed;outline=catching;symbol=timer;" vertex="1" parent="1">
          <mxGeometry x="530" y="380" width="20" height="20" as="geometry" />
        </mxCell>
        <mxCell id="cHZGJzWB-n1yOCpwRg6D-124" value="3 минуты" style="text;html=1;align=left;verticalAlign=middle;whiteSpace=wrap;rounded=0;fontFamily=Courier New;fontSize=8;fontStyle=0" vertex="1" parent="1">
          <mxGeometry x="540" y="400" width="50" height="10" as="geometry" />
        </mxCell>
        <mxCell id="cHZGJzWB-n1yOCpwRg6D-130" value="" style="points=[[0.145,0.145,0],[0.5,0,0],[0.855,0.145,0],[1,0.5,0],[0.855,0.855,0],[0.5,1,0],[0.145,0.855,0],[0,0.5,0]];shape=mxgraph.bpmn.event;html=1;verticalLabelPosition=bottom;labelBackgroundColor=#ffffff;verticalAlign=top;align=center;perimeter=ellipsePerimeter;outlineConnect=0;aspect=fixed;outline=catching;symbol=timer;" vertex="1" parent="1">
          <mxGeometry x="530" y="420" width="20" height="20" as="geometry" />
        </mxCell>
        <mxCell id="cHZGJzWB-n1yOCpwRg6D-131" value="5 минут" style="text;html=1;align=left;verticalAlign=middle;whiteSpace=wrap;rounded=0;fontFamily=Courier New;fontSize=8;fontStyle=0" vertex="1" parent="1">
          <mxGeometry x="540" y="440" width="40" height="10" as="geometry" />
        </mxCell>
        <mxCell id="cHZGJzWB-n1yOCpwRg6D-132" value="" style="points=[[0.145,0.145,0],[0.5,0,0],[0.855,0.145,0],[1,0.5,0],[0.855,0.855,0],[0.5,1,0],[0.145,0.855,0],[0,0.5,0]];shape=mxgraph.bpmn.event;html=1;verticalLabelPosition=bottom;labelBackgroundColor=#ffffff;verticalAlign=top;align=center;perimeter=ellipsePerimeter;outlineConnect=0;aspect=fixed;outline=catching;symbol=timer;" vertex="1" parent="1">
          <mxGeometry x="530" y="460" width="20" height="20" as="geometry" />
        </mxCell>
        <mxCell id="cHZGJzWB-n1yOCpwRg6D-133" value="7 минут" style="text;html=1;align=left;verticalAlign=middle;whiteSpace=wrap;rounded=0;fontFamily=Courier New;fontSize=8;fontStyle=0" vertex="1" parent="1">
          <mxGeometry x="540" y="480" width="40" height="10" as="geometry" />
        </mxCell>
        <mxCell id="cHZGJzWB-n1yOCpwRg6D-134" style="edgeStyle=orthogonalEdgeStyle;rounded=1;orthogonalLoop=1;jettySize=auto;html=1;exitX=1;exitY=0.5;exitDx=0;exitDy=0;exitPerimeter=0;entryX=0;entryY=0.5;entryDx=0;entryDy=0;entryPerimeter=0;endArrow=block;endFill=1;startSize=5;endSize=5;curved=0;" edge="1" parent="1" source="cHZGJzWB-n1yOCpwRg6D-118" target="cHZGJzWB-n1yOCpwRg6D-130">
          <mxGeometry relative="1" as="geometry" />
        </mxCell>
        <mxCell id="cHZGJzWB-n1yOCpwRg6D-135" style="edgeStyle=orthogonalEdgeStyle;rounded=1;orthogonalLoop=1;jettySize=auto;html=1;exitX=0.5;exitY=0;exitDx=0;exitDy=0;exitPerimeter=0;entryX=0;entryY=0.5;entryDx=0;entryDy=0;entryPerimeter=0;endArrow=block;endFill=1;startSize=5;endSize=5;curved=0;" edge="1" parent="1" source="cHZGJzWB-n1yOCpwRg6D-118" target="cHZGJzWB-n1yOCpwRg6D-123">
          <mxGeometry relative="1" as="geometry" />
        </mxCell>
        <mxCell id="cHZGJzWB-n1yOCpwRg6D-136" style="edgeStyle=orthogonalEdgeStyle;rounded=1;orthogonalLoop=1;jettySize=auto;html=1;exitX=0.5;exitY=1;exitDx=0;exitDy=0;exitPerimeter=0;entryX=0;entryY=0.5;entryDx=0;entryDy=0;entryPerimeter=0;endArrow=block;endFill=1;startSize=5;endSize=5;curved=0;" edge="1" parent="1" source="cHZGJzWB-n1yOCpwRg6D-118" target="cHZGJzWB-n1yOCpwRg6D-132">
          <mxGeometry relative="1" as="geometry" />
        </mxCell>
        <mxCell id="cHZGJzWB-n1yOCpwRg6D-140" value="" style="points=[[0.25,0.25,0],[0.5,0,0],[0.75,0.25,0],[1,0.5,0],[0.75,0.75,0],[0.5,1,0],[0.25,0.75,0],[0,0.5,0]];shape=mxgraph.bpmn.gateway2;html=1;verticalLabelPosition=bottom;labelBackgroundColor=#ffffff;verticalAlign=top;align=center;perimeter=rhombusPerimeter;outlineConnect=0;outline=none;symbol=none;" vertex="1" parent="1">
          <mxGeometry x="590" y="420" width="20" height="20" as="geometry" />
        </mxCell>
        <mxCell id="cHZGJzWB-n1yOCpwRg6D-142" value="слабая прожарка" style="text;html=1;align=center;verticalAlign=middle;whiteSpace=wrap;rounded=0;fontFamily=Courier New;fontSize=8;fontStyle=0" vertex="1" parent="1">
          <mxGeometry x="480" y="390" width="50" height="30" as="geometry" />
        </mxCell>
        <mxCell id="cHZGJzWB-n1yOCpwRg6D-145" value="средняя прожарка" style="text;html=1;align=center;verticalAlign=middle;whiteSpace=wrap;rounded=0;fontFamily=Courier New;fontSize=8;fontStyle=0" vertex="1" parent="1">
          <mxGeometry x="480" y="430" width="50" height="30" as="geometry" />
        </mxCell>
        <mxCell id="cHZGJzWB-n1yOCpwRg6D-146" value="полная прожарка" style="text;html=1;align=center;verticalAlign=middle;whiteSpace=wrap;rounded=0;fontFamily=Courier New;fontSize=8;fontStyle=0" vertex="1" parent="1">
          <mxGeometry x="480" y="470" width="50" height="30" as="geometry" />
        </mxCell>
        <mxCell id="cHZGJzWB-n1yOCpwRg6D-147" style="edgeStyle=orthogonalEdgeStyle;rounded=1;orthogonalLoop=1;jettySize=auto;html=1;exitX=1;exitY=0.5;exitDx=0;exitDy=0;exitPerimeter=0;entryX=0.5;entryY=0;entryDx=0;entryDy=0;entryPerimeter=0;endArrow=block;endFill=1;startSize=5;endSize=5;curved=0;" edge="1" parent="1" source="cHZGJzWB-n1yOCpwRg6D-123" target="cHZGJzWB-n1yOCpwRg6D-140">
          <mxGeometry relative="1" as="geometry" />
        </mxCell>
        <mxCell id="cHZGJzWB-n1yOCpwRg6D-148" style="edgeStyle=orthogonalEdgeStyle;rounded=1;orthogonalLoop=1;jettySize=auto;html=1;exitX=1;exitY=0.5;exitDx=0;exitDy=0;exitPerimeter=0;entryX=0;entryY=0.5;entryDx=0;entryDy=0;entryPerimeter=0;endArrow=block;endFill=1;startSize=5;endSize=5;curved=0;" edge="1" parent="1" source="cHZGJzWB-n1yOCpwRg6D-130" target="cHZGJzWB-n1yOCpwRg6D-140">
          <mxGeometry relative="1" as="geometry" />
        </mxCell>
        <mxCell id="cHZGJzWB-n1yOCpwRg6D-149" style="edgeStyle=orthogonalEdgeStyle;rounded=1;orthogonalLoop=1;jettySize=auto;html=1;exitX=1;exitY=0.5;exitDx=0;exitDy=0;exitPerimeter=0;entryX=0.5;entryY=1;entryDx=0;entryDy=0;entryPerimeter=0;endArrow=block;endFill=1;startSize=5;endSize=5;curved=0;" edge="1" parent="1" source="cHZGJzWB-n1yOCpwRg6D-132" target="cHZGJzWB-n1yOCpwRg6D-140">
          <mxGeometry relative="1" as="geometry" />
        </mxCell>
        <mxCell id="cHZGJzWB-n1yOCpwRg6D-150" value="" style="points=[[0.25,0.25,0],[0.5,0,0],[0.75,0.25,0],[1,0.5,0],[0.75,0.75,0],[0.5,1,0],[0.25,0.75,0],[0,0.5,0]];shape=mxgraph.bpmn.gateway2;html=1;verticalLabelPosition=bottom;labelBackgroundColor=#ffffff;verticalAlign=top;align=center;perimeter=rhombusPerimeter;outlineConnect=0;outline=none;symbol=none;gwType=parallel;" vertex="1" parent="1">
          <mxGeometry x="700" y="360" width="20" height="20" as="geometry" />
        </mxCell>
        <mxCell id="cHZGJzWB-n1yOCpwRg6D-151" style="edgeStyle=orthogonalEdgeStyle;rounded=1;orthogonalLoop=1;jettySize=auto;html=1;exitX=1;exitY=0.5;exitDx=0;exitDy=0;exitPerimeter=0;entryX=0.5;entryY=1;entryDx=0;entryDy=0;entryPerimeter=0;endArrow=block;endFill=1;startSize=5;endSize=5;curved=0;" edge="1" parent="1" source="cHZGJzWB-n1yOCpwRg6D-182" target="cHZGJzWB-n1yOCpwRg6D-150">
          <mxGeometry relative="1" as="geometry">
            <mxPoint x="740" y="430" as="sourcePoint" />
          </mxGeometry>
        </mxCell>
        <mxCell id="cHZGJzWB-n1yOCpwRg6D-152" style="edgeStyle=orthogonalEdgeStyle;rounded=1;orthogonalLoop=1;jettySize=auto;html=1;exitX=1;exitY=0.5;exitDx=0;exitDy=0;exitPerimeter=0;entryX=0;entryY=0.5;entryDx=0;entryDy=0;entryPerimeter=0;endArrow=block;endFill=1;startSize=5;endSize=5;curved=0;" edge="1" parent="1" source="cHZGJzWB-n1yOCpwRg6D-110" target="cHZGJzWB-n1yOCpwRg6D-150">
          <mxGeometry relative="1" as="geometry" />
        </mxCell>
        <mxCell id="cHZGJzWB-n1yOCpwRg6D-153" value="Собрать бургер" style="points=[[0.25,0,0],[0.5,0,0],[0.75,0,0],[1,0.25,0],[1,0.5,0],[1,0.75,0],[0.75,1,0],[0.5,1,0],[0.25,1,0],[0,0.75,0],[0,0.5,0],[0,0.25,0]];shape=mxgraph.bpmn.task;whiteSpace=wrap;rectStyle=rounded;size=5;html=1;container=1;expand=0;collapsible=0;taskMarker=abstract;fontFamily=Courier New;fontSize=8;spacing=5;" vertex="1" parent="1">
          <mxGeometry x="740" y="350" width="60" height="40" as="geometry" />
        </mxCell>
        <mxCell id="cHZGJzWB-n1yOCpwRg6D-154" style="edgeStyle=orthogonalEdgeStyle;rounded=1;orthogonalLoop=1;jettySize=auto;html=1;exitX=1;exitY=0.5;exitDx=0;exitDy=0;exitPerimeter=0;entryX=0;entryY=0.5;entryDx=0;entryDy=0;entryPerimeter=0;endArrow=block;endFill=1;startSize=5;endSize=5;curved=0;" edge="1" parent="1" source="cHZGJzWB-n1yOCpwRg6D-150" target="cHZGJzWB-n1yOCpwRg6D-153">
          <mxGeometry relative="1" as="geometry" />
        </mxCell>
        <mxCell id="cHZGJzWB-n1yOCpwRg6D-155" value="Положить бургер на поднос" style="points=[[0.25,0,0],[0.5,0,0],[0.75,0,0],[1,0.25,0],[1,0.5,0],[1,0.75,0],[0.75,1,0],[0.5,1,0],[0.25,1,0],[0,0.75,0],[0,0.5,0],[0,0.25,0]];shape=mxgraph.bpmn.task;whiteSpace=wrap;rectStyle=rounded;size=5;html=1;container=1;expand=0;collapsible=0;taskMarker=abstract;fontFamily=Courier New;fontSize=8;spacing=5;" vertex="1" parent="1">
          <mxGeometry x="820" y="350" width="60" height="40" as="geometry" />
        </mxCell>
        <mxCell id="cHZGJzWB-n1yOCpwRg6D-156" style="edgeStyle=orthogonalEdgeStyle;rounded=1;orthogonalLoop=1;jettySize=auto;html=1;exitX=1;exitY=0.5;exitDx=0;exitDy=0;exitPerimeter=0;entryX=0;entryY=0.5;entryDx=0;entryDy=0;entryPerimeter=0;endArrow=block;endFill=1;startSize=5;endSize=5;curved=0;" edge="1" parent="1" source="cHZGJzWB-n1yOCpwRg6D-153" target="cHZGJzWB-n1yOCpwRg6D-155">
          <mxGeometry relative="1" as="geometry" />
        </mxCell>
        <mxCell id="cHZGJzWB-n1yOCpwRg6D-158" value="Уведомить клиента, что заказ готов" style="points=[[0.25,0,0],[0.5,0,0],[0.75,0,0],[1,0.25,0],[1,0.5,0],[1,0.75,0],[0.75,1,0],[0.5,1,0],[0.25,1,0],[0,0.75,0],[0,0.5,0],[0,0.25,0]];shape=mxgraph.bpmn.task;whiteSpace=wrap;rectStyle=rounded;size=5;html=1;container=1;expand=0;collapsible=0;taskMarker=abstract;fontFamily=Courier New;fontSize=8;spacing=5;" vertex="1" parent="1">
          <mxGeometry x="900" y="520" width="100" height="40" as="geometry" />
        </mxCell>
        <mxCell id="cHZGJzWB-n1yOCpwRg6D-160" value="" style="points=[[0.145,0.145,0],[0.5,0,0],[0.855,0.145,0],[1,0.5,0],[0.855,0.855,0],[0.5,1,0],[0.145,0.855,0],[0,0.5,0]];shape=mxgraph.bpmn.event;html=1;verticalLabelPosition=bottom;labelBackgroundColor=#ffffff;verticalAlign=top;align=center;perimeter=ellipsePerimeter;outlineConnect=0;aspect=fixed;outline=catching;symbol=message;" vertex="1" parent="1">
          <mxGeometry x="1010" y="90" width="20" height="20" as="geometry" />
        </mxCell>
        <mxCell id="cHZGJzWB-n1yOCpwRg6D-161" style="edgeStyle=orthogonalEdgeStyle;rounded=0;orthogonalLoop=1;jettySize=auto;html=1;exitX=1;exitY=0.5;exitDx=0;exitDy=0;exitPerimeter=0;entryX=0.5;entryY=1;entryDx=0;entryDy=0;entryPerimeter=0;startArrow=oval;startFill=0;endArrow=block;endFill=0;dashed=1;" edge="1" parent="1" target="cHZGJzWB-n1yOCpwRg6D-160">
          <mxGeometry relative="1" as="geometry">
            <mxPoint x="1000" y="540" as="sourcePoint" />
            <Array as="points">
              <mxPoint x="1020" y="540" />
              <mxPoint x="1020" y="110" />
            </Array>
          </mxGeometry>
        </mxCell>
        <mxCell id="cHZGJzWB-n1yOCpwRg6D-162" value="Передать бургер оператору выдачи заказов" style="points=[[0.25,0,0],[0.5,0,0],[0.75,0,0],[1,0.25,0],[1,0.5,0],[1,0.75,0],[0.75,1,0],[0.5,1,0],[0.25,1,0],[0,0.75,0],[0,0.5,0],[0,0.25,0]];shape=mxgraph.bpmn.task;whiteSpace=wrap;rectStyle=rounded;size=5;html=1;container=1;expand=0;collapsible=0;taskMarker=abstract;fontFamily=Courier New;fontSize=8;spacing=5;" vertex="1" parent="1">
          <mxGeometry x="900" y="350" width="100" height="40" as="geometry" />
        </mxCell>
        <mxCell id="cHZGJzWB-n1yOCpwRg6D-163" style="edgeStyle=orthogonalEdgeStyle;rounded=1;orthogonalLoop=1;jettySize=auto;html=1;exitX=1;exitY=0.5;exitDx=0;exitDy=0;exitPerimeter=0;entryX=0;entryY=0.5;entryDx=0;entryDy=0;entryPerimeter=0;endArrow=block;endFill=1;startSize=5;endSize=5;curved=0;" edge="1" parent="1" source="cHZGJzWB-n1yOCpwRg6D-155" target="cHZGJzWB-n1yOCpwRg6D-162">
          <mxGeometry relative="1" as="geometry" />
        </mxCell>
        <mxCell id="cHZGJzWB-n1yOCpwRg6D-164" style="edgeStyle=orthogonalEdgeStyle;rounded=1;orthogonalLoop=1;jettySize=auto;html=1;exitX=0.5;exitY=1;exitDx=0;exitDy=0;exitPerimeter=0;entryX=0.5;entryY=0;entryDx=0;entryDy=0;entryPerimeter=0;endArrow=block;endFill=1;startSize=5;endSize=5;curved=0;" edge="1" parent="1" source="cHZGJzWB-n1yOCpwRg6D-162" target="cHZGJzWB-n1yOCpwRg6D-158">
          <mxGeometry relative="1" as="geometry" />
        </mxCell>
        <mxCell id="cHZGJzWB-n1yOCpwRg6D-165" value="Подойти к стойке выдачи заказов" style="points=[[0.25,0,0],[0.5,0,0],[0.75,0,0],[1,0.25,0],[1,0.5,0],[1,0.75,0],[0.75,1,0],[0.5,1,0],[0.25,1,0],[0,0.75,0],[0,0.5,0],[0,0.25,0]];shape=mxgraph.bpmn.task;whiteSpace=wrap;rectStyle=rounded;size=5;html=1;container=1;expand=0;collapsible=0;taskMarker=abstract;fontFamily=Courier New;fontSize=8;spacing=5;" vertex="1" parent="1">
          <mxGeometry x="1070" y="80" width="80" height="40" as="geometry" />
        </mxCell>
        <mxCell id="cHZGJzWB-n1yOCpwRg6D-166" style="edgeStyle=orthogonalEdgeStyle;rounded=1;orthogonalLoop=1;jettySize=auto;html=1;exitX=1;exitY=0.5;exitDx=0;exitDy=0;exitPerimeter=0;entryX=0;entryY=0.5;entryDx=0;entryDy=0;entryPerimeter=0;endArrow=block;endFill=1;startSize=5;endSize=5;curved=0;" edge="1" parent="1" source="cHZGJzWB-n1yOCpwRg6D-160" target="cHZGJzWB-n1yOCpwRg6D-165">
          <mxGeometry relative="1" as="geometry" />
        </mxCell>
        <mxCell id="cHZGJzWB-n1yOCpwRg6D-167" value="Предъявить чек с номером заказа" style="points=[[0.25,0,0],[0.5,0,0],[0.75,0,0],[1,0.25,0],[1,0.5,0],[1,0.75,0],[0.75,1,0],[0.5,1,0],[0.25,1,0],[0,0.75,0],[0,0.5,0],[0,0.25,0]];shape=mxgraph.bpmn.task;whiteSpace=wrap;rectStyle=rounded;size=5;html=1;container=1;expand=0;collapsible=0;taskMarker=abstract;fontFamily=Courier New;fontSize=8;spacing=5;" vertex="1" parent="1">
          <mxGeometry x="1170" y="80" width="80" height="40" as="geometry" />
        </mxCell>
        <mxCell id="cHZGJzWB-n1yOCpwRg6D-168" style="edgeStyle=orthogonalEdgeStyle;rounded=0;orthogonalLoop=1;jettySize=auto;html=1;exitX=0.5;exitY=0;exitDx=0;exitDy=0;exitPerimeter=0;entryX=0.5;entryY=0;entryDx=0;entryDy=0;entryPerimeter=0;endArrow=open;endFill=0;dashed=1;" edge="1" parent="1" source="cHZGJzWB-n1yOCpwRg6D-80" target="cHZGJzWB-n1yOCpwRg6D-167">
          <mxGeometry relative="1" as="geometry" />
        </mxCell>
        <mxCell id="cHZGJzWB-n1yOCpwRg6D-169" style="edgeStyle=orthogonalEdgeStyle;rounded=1;orthogonalLoop=1;jettySize=auto;html=1;exitX=1;exitY=0.5;exitDx=0;exitDy=0;exitPerimeter=0;entryX=0;entryY=0.5;entryDx=0;entryDy=0;entryPerimeter=0;endArrow=block;endFill=1;startSize=5;endSize=5;curved=0;" edge="1" parent="1" source="cHZGJzWB-n1yOCpwRg6D-165" target="cHZGJzWB-n1yOCpwRg6D-167">
          <mxGeometry relative="1" as="geometry" />
        </mxCell>
        <mxCell id="cHZGJzWB-n1yOCpwRg6D-170" value="Выдать соответствующий заказ" style="points=[[0.25,0,0],[0.5,0,0],[0.75,0,0],[1,0.25,0],[1,0.5,0],[1,0.75,0],[0.75,1,0],[0.5,1,0],[0.25,1,0],[0,0.75,0],[0,0.5,0],[0,0.25,0]];shape=mxgraph.bpmn.task;whiteSpace=wrap;rectStyle=rounded;size=5;html=1;container=1;expand=0;collapsible=0;taskMarker=abstract;fontFamily=Courier New;fontSize=8;spacing=5;" vertex="1" parent="1">
          <mxGeometry x="1170" y="520" width="80" height="40" as="geometry" />
        </mxCell>
        <mxCell id="cHZGJzWB-n1yOCpwRg6D-176" style="edgeStyle=orthogonalEdgeStyle;rounded=1;orthogonalLoop=1;jettySize=auto;html=1;exitX=0.5;exitY=1;exitDx=0;exitDy=0;exitPerimeter=0;entryX=0.5;entryY=0;entryDx=0;entryDy=0;entryPerimeter=0;endArrow=block;endFill=1;startSize=5;endSize=5;curved=0;" edge="1" parent="1" source="cHZGJzWB-n1yOCpwRg6D-167" target="cHZGJzWB-n1yOCpwRg6D-170">
          <mxGeometry relative="1" as="geometry" />
        </mxCell>
        <mxCell id="cHZGJzWB-n1yOCpwRg6D-177" value="Съесть бургер" style="points=[[0.25,0,0],[0.5,0,0],[0.75,0,0],[1,0.25,0],[1,0.5,0],[1,0.75,0],[0.75,1,0],[0.5,1,0],[0.25,1,0],[0,0.75,0],[0,0.5,0],[0,0.25,0]];shape=mxgraph.bpmn.task;whiteSpace=wrap;rectStyle=rounded;size=5;html=1;container=1;expand=0;collapsible=0;taskMarker=abstract;fontFamily=Courier New;fontSize=8;spacing=5;" vertex="1" parent="1">
          <mxGeometry x="1270" y="80" width="60" height="40" as="geometry" />
        </mxCell>
        <mxCell id="cHZGJzWB-n1yOCpwRg6D-178" style="edgeStyle=orthogonalEdgeStyle;rounded=1;orthogonalLoop=1;jettySize=auto;html=1;exitX=1;exitY=0.5;exitDx=0;exitDy=0;exitPerimeter=0;entryX=0.5;entryY=1;entryDx=0;entryDy=0;entryPerimeter=0;endArrow=block;endFill=1;startSize=5;endSize=5;curved=0;" edge="1" parent="1" source="cHZGJzWB-n1yOCpwRg6D-170" target="cHZGJzWB-n1yOCpwRg6D-177">
          <mxGeometry relative="1" as="geometry" />
        </mxCell>
        <mxCell id="cHZGJzWB-n1yOCpwRg6D-180" value="" style="points=[[0.145,0.145,0],[0.5,0,0],[0.855,0.145,0],[1,0.5,0],[0.855,0.855,0],[0.5,1,0],[0.145,0.855,0],[0,0.5,0]];shape=mxgraph.bpmn.event;html=1;verticalLabelPosition=bottom;labelBackgroundColor=#ffffff;verticalAlign=top;align=center;perimeter=ellipsePerimeter;outlineConnect=0;aspect=fixed;outline=end;symbol=terminate2;" vertex="1" parent="1">
          <mxGeometry x="1370" y="90" width="20" height="20" as="geometry" />
        </mxCell>
        <mxCell id="cHZGJzWB-n1yOCpwRg6D-181" style="edgeStyle=orthogonalEdgeStyle;rounded=1;orthogonalLoop=1;jettySize=auto;html=1;exitX=1;exitY=0.5;exitDx=0;exitDy=0;exitPerimeter=0;entryX=0;entryY=0.5;entryDx=0;entryDy=0;entryPerimeter=0;endArrow=block;endFill=1;startSize=5;endSize=5;curved=0;" edge="1" parent="1" source="cHZGJzWB-n1yOCpwRg6D-177" target="cHZGJzWB-n1yOCpwRg6D-180">
          <mxGeometry relative="1" as="geometry" />
        </mxCell>
        <mxCell id="cHZGJzWB-n1yOCpwRg6D-182" value="Снять котлету с огня" style="points=[[0.25,0,0],[0.5,0,0],[0.75,0,0],[1,0.25,0],[1,0.5,0],[1,0.75,0],[0.75,1,0],[0.5,1,0],[0.25,1,0],[0,0.75,0],[0,0.5,0],[0,0.25,0]];shape=mxgraph.bpmn.task;whiteSpace=wrap;rectStyle=rounded;size=5;html=1;container=1;expand=0;collapsible=0;taskMarker=abstract;fontFamily=Courier New;fontSize=8;spacing=5;" vertex="1" parent="1">
          <mxGeometry x="630" y="410" width="60" height="40" as="geometry" />
        </mxCell>
        <mxCell id="cHZGJzWB-n1yOCpwRg6D-183" style="edgeStyle=orthogonalEdgeStyle;rounded=1;orthogonalLoop=1;jettySize=auto;html=1;exitX=1;exitY=0.5;exitDx=0;exitDy=0;exitPerimeter=0;entryX=0;entryY=0.5;entryDx=0;entryDy=0;entryPerimeter=0;endArrow=block;endFill=1;startSize=5;endSize=5;curved=0;" edge="1" parent="1" source="cHZGJzWB-n1yOCpwRg6D-140" target="cHZGJzWB-n1yOCpwRg6D-182">
          <mxGeometry relative="1" as="geometry" />
        </mxCell>
        <mxCell id="cHZGJzWB-n1yOCpwRg6D-186" value="КЛИЕНТ" style="swimlane;html=1;startSize=60;fontStyle=1;collapsible=0;horizontal=0;swimlaneLine=1;swimlaneFillColor=none;strokeWidth=1;whiteSpace=wrap;fillColor=none;fontFamily=Courier New;fontSize=8;" vertex="1" parent="1">
          <mxGeometry width="1410" height="200" as="geometry" />
        </mxCell>
        <mxCell id="cHZGJzWB-n1yOCpwRg6D-187" value="ОПЕРАТОР ПРИЁМА ЗАКАЗОВ" style="swimlane;html=1;startSize=30;fontStyle=1;collapsible=0;horizontal=0;swimlaneLine=1;swimlaneFillColor=none;strokeWidth=1;whiteSpace=wrap;fillColor=none;fontFamily=Courier New;fontSize=8;" vertex="1" parent="1">
          <mxGeometry x="30" y="200" width="1380" height="100" as="geometry" />
        </mxCell>
        <mxCell id="cHZGJzWB-n1yOCpwRg6D-188" value="ПОВАР" style="swimlane;html=1;startSize=30;fontStyle=1;collapsible=0;horizontal=0;swimlaneLine=1;swimlaneFillColor=none;strokeWidth=1;whiteSpace=wrap;fillColor=none;fontFamily=Courier New;fontSize=8;" vertex="1" parent="1">
          <mxGeometry x="30" y="300" width="1380" height="200" as="geometry" />
        </mxCell>
        <mxCell id="cHZGJzWB-n1yOCpwRg6D-189" value="ОПЕРАТОР ВЫДАЧИ ЗАКАЗОВ" style="swimlane;html=1;startSize=30;fontStyle=1;collapsible=0;horizontal=0;swimlaneLine=1;swimlaneFillColor=none;strokeWidth=1;whiteSpace=wrap;fillColor=none;fontFamily=Courier New;fontSize=8;" vertex="1" parent="1">
          <mxGeometry x="30" y="500" width="1380" height="80" as="geometry" />
        </mxCell>
        <mxCell id="cHZGJzWB-n1yOCpwRg6D-192" value="БУРГЕРНАЯ" style="rounded=0;whiteSpace=wrap;html=1;fillColor=none;fontFamily=Courier New;fontSize=8;fontStyle=1;rotation=-90;" vertex="1" parent="1">
          <mxGeometry x="-175" y="375" width="380" height="30" as="geometry" />
        </mxCell>
      </root>
    </mxGraphModel>
  </diagram>
</mxfile>
